<svg xmlns="http://www.w3.org/2000/svg" xmlns:xlink="http://www.w3.org/1999/xlink" width="668.206" height="589.995" viewBox="0 0 668.206 589.995"><defs><style>.a,.x,.y{fill:none;}.b{clip-path:url(#a);}.c{fill:url(#b);}.d,.e{fill:#ef437e;}.d{opacity:0.4;}.e,.h{opacity:0.16;}.f{fill:#ff285a;}.g{fill:url(#c);}.h{fill:#ff8327;}.i,.k{fill:#f1f2f2;}.j{fill:#0048be;}.k{opacity:0.55;}.l,.s{fill:#ff9a27;}.m{fill:url(#d);}.n{fill:url(#e);}.o{fill:url(#f);}.p{fill:#ffb3b0;}.q{fill:url(#g);}.r{fill:url(#h);}.s{opacity:0.43;}.t{fill:#022e74;}.u{fill:#01307f;}.v{opacity:0.19;fill:url(#k);}.w{fill:url(#l);}.x,.y{stroke:#fda10b;stroke-width:3px;}.x{stroke-linecap:round;stroke-linejoin:round;}.z{stroke:none;}.aa{filter:url(#i);}</style><clipPath id="a"><rect class="a" width="568.321" height="461.601"/></clipPath><linearGradient id="b" y1="0.5" x2="1" y2="0.5" gradientUnits="objectBoundingBox"><stop offset="0" stop-color="#004dc3"/><stop offset="1" stop-color="#003eb1"/></linearGradient><linearGradient id="c" x1="-1.754" y1="-0.135" x2="5.414" y2="1.885" xlink:href="#b"/><linearGradient id="d" x1="0.629" y1="1.356" x2="0.321" y2="0.247" xlink:href="#b"/><linearGradient id="e" x1="0.856" y1="-0.005" x2="0.23" y2="0.904" gradientUnits="objectBoundingBox"><stop offset="0" stop-color="#ff9a27"/><stop offset="0.307" stop-color="#ff9127"/><stop offset="0.79" stop-color="#ff7a27"/><stop offset="1" stop-color="#ff6f27"/></linearGradient><linearGradient id="f" x1="0.602" y1="0.781" x2="0.237" y2="-0.246" xlink:href="#e"/><linearGradient id="g" x1="0.406" y1="0.937" x2="0.59" y2="-0.184" gradientUnits="objectBoundingBox"><stop offset="0" stop-color="#ffb3b0"/><stop offset="1" stop-color="#ff95b0"/></linearGradient><linearGradient id="h" x1="0.414" y1="0.971" x2="0.527" y2="0.282" gradientUnits="objectBoundingBox"><stop offset="0" stop-color="#f1f2f2"/><stop offset="1" stop-color="#fff"/></linearGradient><filter id="i" x="467.343" y="0" width="183.655" height="105.206" filterUnits="userSpaceOnUse"><feOffset dy="3" input="SourceAlpha"/><feGaussianBlur stdDeviation="3" result="j"/><feFlood flood-opacity="0.161"/><feComposite operator="in" in2="j"/><feComposite in="SourceGraphic"/></filter><linearGradient id="k" x1="0.439" y1="0.035" x2="0.485" y2="0.434" xlink:href="#b"/><linearGradient id="l" x1="0.429" y1="0.919" x2="0.609" y2="-0.136" xlink:href="#g"/></defs><g transform="translate(-54.925 -800.005)"><g transform="translate(191.31 806.005)"><g transform="translate(-126 122.394)"><g class="b"><g transform="translate(52.697 88.068)"><path class="c" d="M15.774,0h526.9a15.774,15.774,0,0,1,15.775,15.775v84.672a15.774,15.774,0,0,1-15.775,15.775H15.775A15.775,15.775,0,0,1,0,100.447V15.774A15.774,15.774,0,0,1,15.774,0Z" transform="translate(0 220.903)"/><rect class="d" width="31.92" height="116.221" transform="translate(407.955 220.903)"/><rect class="d" width="31.92" height="116.221" transform="translate(466.951 220.903)"/><path class="e" d="M2682.694,2144.983h538.26a10.094,10.094,0,0,0,10.093-10.094v-96.034a10.094,10.094,0,0,0-10.094-10.093H3066.4l-23.115,70.665c-5.695,17.41-66.079,45.232-84.394,45.556L2672.6,2134.889A10.093,10.093,0,0,0,2682.694,2144.983Z" transform="translate(-2672.601 -1807.859)"/><g transform="translate(10.654 119.64)"><path class="f" d="M20.473,0H516.665a20.473,20.473,0,0,1,20.473,20.473V80.79a20.474,20.474,0,0,1-20.474,20.474H20.473A20.473,20.473,0,0,1,0,80.79V20.473A20.473,20.473,0,0,1,20.473,0Z"/><rect class="g" width="26.828" height="67.952" transform="translate(25.425 16.656)"/><path class="h" d="M3242.06,1839.717v-75.249a13.007,13.007,0,0,0-13.007-13.007H3156.8l-8.473,42.889a48.255,48.255,0,0,1-45.746,38.877l-395.845,13.084a12.99,12.99,0,0,0,11.2,6.412h511.123A13.007,13.007,0,0,0,3242.06,1839.717Z" transform="translate(-2704.922 -1751.461)"/></g><rect class="i" width="412.307" height="97.705" transform="translate(59.274 10.967)"/><path class="j" d="M2815.805,1527.027v-86.738a5.49,5.49,0,0,1,5.5-5.484h418.589a5.49,5.49,0,0,0,5.5-5.483h0a5.491,5.491,0,0,0-5.5-5.484H2810.307a5.49,5.49,0,0,0-5.5,5.484v108.672a5.49,5.49,0,0,0,5.5,5.484h429.584a5.491,5.491,0,0,0,5.5-5.484h0a5.49,5.49,0,0,0-5.5-5.483H2821.3A5.49,5.49,0,0,1,2815.805,1527.027Z" transform="translate(-2756.53 -1423.838)"/><rect class="i" width="375.611" height="9.397" rx="4.656" transform="translate(75.773 32.63)"/><rect class="i" width="375.611" height="9.397" rx="4.656" transform="translate(75.773 55.439)"/><rect class="i" width="375.611" height="9.397" rx="4.656" transform="translate(75.773 78.248)"/><path class="k" d="M3247.224,1453.871h-22.26l-11.726,63.887a24.621,24.621,0,0,1-23.694,20.171l-354.625,7.529v6.119h412.306Z" transform="translate(-2775.644 -1442.903)"/><path class="l" d="M2912.727,1568.24l-16.314-11.653L2880.1,1568.24v-52.572h32.628Z" transform="translate(-2804.325 -1482.134)"/></g></g></g><path class="m" d="M3449.538,2197.053s-13.963-73.408-41.067-125.152-128.806,24.054-128.806,24.054-23.506,29.9-49.425,101.347h104.91l8.846-10.824,4.517,10.824Z" transform="translate(-3118.129 -1613.308)"/><path class="n" d="M3089.108,1203.127s-88.811,41.888-115.915,107.6-9.856,118.273,37.781,101.846l6.716,38.017s86.917,15.37,128.805-24.055c32.032-70.635,32.032-159.34,32.032-159.34s96.1-44.352,107.6-221.762l-25.461-8.213S3228.022,1203.127,3089.108,1203.127Z" transform="translate(-2856.153 -967.939)"/><path class="o" d="M3607,1904.537c-45.319,15.627-63.134-31.188-41.423-92.355,11.073,10.537,22.009,26.9,38.96,28.7,19.29,2.053,43.531-20.123,43.531-20.123,10.952,6.571,16.427,22.45,16.427,22.45C3644.375,1886.057,3607,1904.537,3607,1904.537Z" transform="translate(-3452.182 -1459.907)"/><path class="p" d="M3502.946,1800.1s20.678-9.546,25.2-20.634-9.446-32.032-16.837-27.926c0,0-4.929,5.75-6.571,5.75s-8.487-3.286-9.856.821-5.021,24.835-5.021,24.835Z" transform="translate(-3292.418 -1421.075)"/><path class="q" d="M2950.96,913.512s-15.332,1.085-14.51,11.63,9.856,20.676,10.13,25.33.362,9.037.362,9.037l21.634,6.979a127,127,0,0,1,9.216-21.764C2984.088,932.95,2950.96,913.512,2950.96,913.512Z" transform="translate(-2539.88 -889.408)"/><g class="aa" transform="matrix(1, 0, 0, 1, -136.38, -6)"><path class="r" d="M2850.573,904.856l50.259,29.856a51.072,51.072,0,0,0,17.669-45.251l-76.325-11.983-73.431-29.655a4.321,4.321,0,0,0-4.675.94c-4.115,4.119-12.462,14.789-10.61,32.22a4.348,4.348,0,0,0,3.629,3.845l80.616,12.909Z" transform="translate(-2276.85 -841.51)"/></g><path class="s" d="M3447.608,1494.51s21.319-1.175,23.148,13.721c1.736,14.128-23.2,25.455-41.459,17.3-3.784-1.691-8.119-4.392-9.312-8.361C3417.99,1510.521,3418.66,1499.421,3447.608,1494.51Z" transform="translate(-3208.478 -1258.227)"/><path class="p" d="M3438,1268.155s27.653,63.791,7.94,72.552c-11.5,6.571-24.64,0-24.64,0s-.922,11.534,3.16,19.356a3.754,3.754,0,0,1-.509,4.236c-7.953,8.858-20.525,5.652-25.859,3.723a3.821,3.821,0,0,1-2.534-3.556c-.073-7.719-.684-31.228-5.332-43.472l-2.327,5.476-15.879-9.856S3376.4,1243.241,3438,1268.155Z" transform="translate(-3173.392 -1111.268)"/><path class="t" d="M3418.072,1251.281s3.7-4.107,1.643-18.48c6.16-2.875,7.118-7.94,7.118-7.94s25.188,4.517,37.781-6.708l4.186,10.569s15.647-20.936,2.97-44.493a113.532,113.532,0,0,1-16.761,3.438c-54.018,7.442-72.282,33.054-74.324,41.364,0,0-2.229,7.63,1.409,20.656,4.69,16.789,31.872,24.18,39.264,41.018,0,0-2.054-13.142-4.518-19.712,0,0-8.02,4.564-11.5-9.2C3401.646,1247.175,3418.072,1251.281,3418.072,1251.281Z" transform="translate(-3200.008 -1061.267)"/><path class="p" d="M2914.786,909.577s-5.476,19.986-3.559,23.271,5.475,6.023,8.213,4.654,16.152,8.487,18.891,5.749,12.594-22.724,10.4-24.914-6.023-5.475-9.309-5.2-3.924-4.107-9.491-3.559S2919.987,905.744,2914.786,909.577Z" transform="translate(-2500.996 -885.902)"/><path class="u" d="M3387.166,1184.23s1.016,2.244,2.488,5.505c7.822,21.218-5.458,38.988-5.458,38.988l-4.186-10.569C3393.514,1204.576,3387.166,1184.23,3387.166,1184.23Z" transform="translate(-3115.403 -1061.267)"/><path class="v" d="M3556.91,1332.859c-.617,1.619-.7,3.827.052,6.821,3.479,13.762,11.5,9.2,11.5,9.2,2.464,6.571,4.518,19.712,4.518,19.712-7.392-16.837-34.574-24.229-39.264-41.018-3.639-13.026-1.408-20.656-1.408-20.656C3533.949,1323.818,3556.91,1332.859,3556.91,1332.859Z" transform="translate(-3351.629 -1139.151)"/><path class="w" d="M3451.427,1440.631c7.278,6.808,21.217,12.845,21.217,12.845s-.854,10.7,2.731,18.474h0C3463.77,1469.971,3451.427,1440.631,3451.427,1440.631Z" transform="translate(-3224.738 -1224.037)"/></g><g transform="translate(-275.531 863.598)"><line class="x" x2="10.01" y2="10.01" transform="translate(353.531 124.402)"/><line class="x" y1="10.01" x2="10.01" transform="translate(353.531 124.402)"/></g><g transform="translate(-96.396 833.401) rotate(45)"><line class="x" x2="10.886" y2="10.886" transform="translate(353.531 124.402)"/><line class="x" y1="10.886" x2="10.886" transform="translate(353.531 124.402)"/></g><g transform="translate(357.469 1151.598)"><line class="x" x2="10.01" y2="10.01" transform="translate(353.531 124.402)"/><line class="x" y1="10.01" x2="10.01" transform="translate(353.531 124.402)"/></g><g class="y" transform="translate(252 865)"><circle class="z" cx="10.5" cy="10.5" r="10.5"/><circle class="a" cx="10.5" cy="10.5" r="9"/></g><g class="y" transform="translate(662 1058)"><circle class="z" cx="10.5" cy="10.5" r="10.5"/><circle class="a" cx="10.5" cy="10.5" r="9"/></g></g></svg>